<svg width="100px" height="76px" viewBox="0 0 100 76" version="1.1" xmlns="http://www.w3.org/2000/svg" xmlns:xlink="http://www.w3.org/1999/xlink" class="quote-module--speech-marks"><g stroke="none" stroke-width="1" fill="none" fill-rule="evenodd"><g transform="translate(-1150.000000, -3020.000000)"><g transform="translate(960.000000, 2911.000000)" fill="#000000"><g transform="translate(190.000000, 100.000000)"><g transform="translate(0.000000, 9.000000)"><path d="M100,53.7607352 C100,66.5751434 90.4737039,75.1923077 78.6145237,75.1923077 C61.6788862,75.1923077 53.8461538,62.3736981 53.8461538,45.3578446 C53.8461538,20.3592451 64.4351612,0.192307692 95.7660906,0.192307692 L96.1894816,0.192307692 L96.1894816,18.8887393 L95.1310042,18.8887393 C84.1228398,18.8887393 79.6730011,23.5103291 78.1953667,33.1736533 C90.4737039,33.1736533 100,40.9463271 100,53.7607352 M46.1538462,53.7607352 C46.1538462,66.5751434 36.62755,75.1923077 24.7726038,75.1923077 C7.83696626,75.1923077 0,62.3736981 0,45.3578446 C0,20.3592451 10.5847735,0.192307692 41.9199368,0.192307692 L42.3433277,0.192307692 L42.3433277,18.8887393 L41.2848504,18.8887393 C30.276686,18.8887393 25.8310811,23.5103291 24.3449789,33.1736533 C36.62755,33.1736533 46.1538462,40.9463271 46.1538462,53.7607352"></path></g></g></g></g></g></svg>